HIERARCHY
ROOT Hips
{
 OFFSET 0.000000 0.000000 0.000000
 CHANNELS 6 Xposition Yposition Zposition Zrotation Xrotation Yrotation
 JOINT Chest
 {
  OFFSET 0.000000 4.000000 0.000000
  CHANNELS 3 Zrotation Xrotation Yrotation
  JOINT Head
  {
   OFFSET 0.000000 24.803150 0.000000
   CHANNELS 3 Zrotation Xrotation Yrotation
   End Site
   {
    OFFSET 0.000000 9.448819 0.000000
   }
  }
  JOINT LeftUpArm
  {
   OFFSET 7.086614 23.228346 0.000000
   CHANNELS 3 Zrotation Xrotation Yrotation
   JOINT LeftLowArm
   {
    OFFSET 0.000000 -11.811024 0.000000
    CHANNELS 3 Zrotation Xrotation Yrotation
    End Site
    {
     OFFSET 0.000000 -11.811024 0.000000
    }
   }
  }
  JOINT RightUpArm
  {
   OFFSET -7.086614 23.228346 0.000000
   CHANNELS 3 Zrotation Xrotation Yrotation
   JOINT RightLowArm
   {
    OFFSET 0.000000 -11.811024 0.000000
    CHANNELS 3 Zrotation Xrotation Yrotation
    End Site
    {
     OFFSET 0.000000 -11.811024 0.000000
    }
   }
  }
 }
 JOINT LeftUpLeg
 {
  OFFSET 3.937008 0.000000 0.000000
  CHANNELS 3 Zrotation Xrotation Yrotation
  JOINT LeftLowLeg
  {
   OFFSET 0.000000 -16.929134 0.000000
   CHANNELS 3 Zrotation Xrotation Yrotation
   End Site
   {
    OFFSET 0.000000 -19.685040 0.000000
   }
  }
 }
 JOINT RightUpLeg
 {
  OFFSET -3.937008 0.000000 0.000000
  CHANNELS 3 Zrotation Xrotation Yrotation
  JOINT RightLowLeg
  {
   OFFSET 0.000000 -16.929134 0.000000
   CHANNELS 3 Zrotation Xrotation Yrotation
   End Site
   {
    OFFSET 0.000000 -19.685040 0.000000
   }
  }
 }
}
MOTION
Frames: 14      
Frame Time: 0.033333
7.558825 -0.017579 45.897884 3.158011 -2.807395 -88.537949 1.244826 3.003311 -1.673486 2.007421 -4.958456 -15.724716 8.985791 -3.198999 1.007698 2.184969 1.604574 -21.714094 -5.877633 -1.194066 7.103785 -2.247710 1.804793 12.997549 9.694686 -32.467621 5.458035 -1.291327 75.764839 -6.695484 1.945844 -15.974623 -2.023750 1.727010 21.013708 -4.041150
6.512894 0.017579 45.924252 3.096915 -3.039717 -89.293823 0.692818 3.216665 -0.820643 1.399414 -4.246173 -15.851868 9.726052 -2.150283 1.903822 1.935338 1.681453 -21.163361 -6.206337 -3.094373 8.451432 -2.198676 0.877828 11.508191 9.531730 -34.927673 5.490260 -6.152587 73.081726 -1.479743 2.032846 -14.332642 -2.095785 1.346160 20.527252 -3.355524
5.484542 0.026368 45.941833 3.053809 -3.216117 -90.012573 0.167171 3.445372 -0.055007 0.821752 -3.615590 -15.987625 10.317492 -1.181627 2.681699 1.755291 1.735421 -20.701157 -6.497036 -5.088119 9.582559 -2.187621 -0.099102 9.979088 9.171414 -36.878460 5.332729 -8.950310 68.579376 2.064871 2.098783 -12.707269 -2.360606 0.911945 19.965799 -2.616220
3.515732 -0.017579 45.968201 2.812829 -3.494536 -91.218063 -0.834714 3.921553 1.035218 0.125511 -2.790410 -16.068100 11.051023 0.282088 3.876894 1.510561 1.645662 -20.372225 -7.051161 -8.734162 11.389065 -1.796286 -2.494528 6.940855 8.470854 -38.278603 5.047897 -10.840213 54.904701 5.095136 2.146652 -9.154288 -3.235322 0.012175 18.788803 -0.739991
2.548906 -0.096683 45.994568 2.624566 -3.549384 -91.718193 -1.263775 4.094626 1.379437 -0.011055 -2.484716 -16.063061 11.159242 1.008716 4.310193 1.515580 1.597588 -20.403549 -7.311269 -10.325002 12.166890 -1.369612 -3.883806 5.644798 7.941994 -37.890091 4.676585 -9.899436 46.260220 4.967603 2.273357 -7.200556 -3.665388 -0.418986 17.977205 0.034202
0.536149 -0.395520 46.091251 1.897577 -3.546100 -92.841385 -2.104727 4.288470 1.777507 -0.150939 -1.837947 -15.460714 11.042637 2.432306 5.132354 1.719222 1.645306 -20.933041 -7.642789 -12.854606 14.018449 -0.310517 -6.748575 3.893502 7.072543 -35.878685 2.402179 -7.080093 29.871365 5.082775 2.273521 -2.698884 -4.738298 -1.033150 16.405502 1.939047
-0.518571 -0.615253 46.179142 1.321077 -3.539628 -93.623856 -2.551682 4.175815 1.961848 -0.088092 -1.213367 -14.934047 10.752598 3.367457 5.433241 1.799223 1.625289 -21.093679 -7.644445 -13.731670 15.187752 0.153669 -8.089510 3.531684 7.159472 -34.865307 0.991186 -5.472785 23.283569 6.483470 2.186872 -0.215807 -5.356460 -1.477524 15.854904 3.157834
-2.795007 -1.107456 46.460403 -0.325278 -3.605474 -95.988327 -3.460786 3.675997 2.621461 -0.149186 0.681546 -13.436928 9.707661 5.442416 6.963870 1.967098 1.668815 -21.752121 -7.361673 -14.894290 17.761305 0.850965 -10.123817 3.487779 8.421803 -31.576412 1.403135 -2.261131 12.935501 8.656792 1.462682 4.868766 -6.885545 -2.747134 15.909094 6.578389
-3.955199 -1.300821 46.671345 -1.508335 -3.753867 -97.358711 -3.946305 3.428393 2.940085 -0.309319 2.006286 -12.436557 8.845099 6.377656 7.945085 2.064803 1.960151 -21.554668 -7.041233 -15.153164 18.721247 1.106856 -10.770012 3.719283 8.946576 -28.887489 1.885020 -3.105270 9.073990 9.405481 0.478502 7.392510 -8.052320 -3.695433 16.831001 8.639795
-6.389843 -1.432661 47.137180 -4.452135 -4.293551 -100.452965 -4.976817 3.325336 3.687186 -0.835707 5.270867 -10.166827 6.913162 7.156337 9.732184 2.202367 3.319278 -19.989429 -5.865098 -15.082521 19.371058 1.496901 -11.120277 3.928101 7.413485 -22.356537 3.077728 -5.034579 5.543153 8.690462 -2.520967 11.103337 -9.933029 -6.737033 21.710117 12.317440
-7.567614 -1.300821 47.400860 -5.770266 -4.751050 -101.865532 -5.665597 3.351180 3.883940 -1.204962 6.761308 -9.149669 6.204992 6.794324 10.227344 2.174206 4.036356 -18.738436 -4.828624 -14.762474 18.979082 1.422475 -10.922647 3.714422 5.089658 -18.417830 3.059702 -4.224057 4.543818 8.547895 -4.212247 11.314281 -10.439676 -8.826098 25.909433 13.711951
-8.754173 -1.072298 47.646961 -6.713653 -5.177461 -103.100540 -6.265117 3.200944 3.762646 -1.565911 7.728682 -7.992878 5.654929 6.140482 10.466022 2.066947 4.501767 -17.198519 -3.581537 -13.970133 18.124607 1.157633 -10.844612 3.659415 3.560991 -14.782211 3.775954 -4.670074 3.190798 6.534320 -5.528511 10.189010 -10.723112 -11.700810 31.409264 15.485435
-9.896787 -0.852565 47.910641 -7.261776 -5.493017 -104.213867 -6.637871 3.013000 3.549284 -1.827042 8.117240 -7.012481 5.277875 5.470359 10.253274 1.852651 4.057817 -15.668961 -2.639134 -12.825795 16.725441 1.037473 -11.232694 3.943231 2.728080 -12.354106 2.588303 -5.474347 2.832252 6.662805 -6.300641 8.031354 -10.783036 -15.401362 37.488567 17.916920
-12.041383 -0.421888 48.394054 -7.583954 -5.888680 -106.086334 -6.928823 3.050380 2.630852 -2.740438 7.620994 -5.319131 5.588471 3.499981 8.437986 1.029183 0.905229 -13.685884 -1.747926 -10.721909 13.592690 1.587125 -13.021512 5.213772 0.415454 -8.168220 0.470653 -4.756720 2.188696 9.119819 -6.165882 1.778187 -10.572959 -25.938663 50.287926 24.689167
